<?xml version="1.0" standalone="no"?>
<!DOCTYPE svg PUBLIC "-//W3C//DTD SVG 20010904//EN" "http://www.w3.org/TR/2001/REC-SVG-20010904/DTD/svg10.dtd">
<svg version="1.0" xmlns="http://www.w3.org/2000/svg" width="256.000000pt" height="396.000000pt" viewBox="0 0 256.000000 396.000000" preserveAspectRatio="xMidYMid meet">
<g transform="translate(0.000000,396.000000) scale(0.100000,-0.100000)" fill="#0a2342" stroke="none">
<path d="M701 3633 c-24 -9 -63 -35 -86 -58 -61 -60 -75 -111 -75 -268 0 -126
-1 -130 -25 -149 -22 -17 -25 -27 -25 -89 0 -74 11 -109 35 -109 13 0 15 -28
15 -175 0 -140 -3 -175 -13 -175 -31 0 -47 -35 -47 -104 0 -76 12 -106 40
-106 15 0 20 -7 20 -25 0 -14 -6 -25 -13 -25 -31 0 -47 -35 -47 -104 0 -76 12
-106 40 -106 20 0 20 -11 20 -738 0 -832 -3 -800 75 -877 76 -76 65 -75 700
-75 635 0 624 -1 700 75 81 80 75 -33 75 1525 0 1558 6 1445 -75 1525 -76 76
-65 75 -704 74 -486 0 -572 -3 -610 -16z m1209 -103 c56 -29 80 -80 80 -170
l0 -70 -675 0 -675 0 0 70 c0 89 24 141 78 169 36 19 59 20 595 21 540 0 559
-1 597 -20z m-567 -302 c18 -28 -5 -60 -118 -157 -84 -72 -112 -92 -132 -89
-35 4 -50 30 -36 61 6 13 59 65 118 116 84 72 112 92 132 89 14 -2 31 -11 36
-20z m-393 -8 c11 -11 20 -26 20 -32 0 -7 -42 -52 -92 -101 -84 -79 -96 -87
-128 -85 -31 3 -35 6 -38 34 -3 28 6 40 83 110 110 101 123 106 155 74z m82
-247 c31 -28 18 -83 -21 -83 -22 0 -51 31 -51 55 0 43 39 58 72 28z m-79 -85
c18 -28 -5 -60 -118 -157 -84 -72 -112 -92 -132 -89 -35 4 -50 30 -36 61 6 13
59 65 118 116 84 72 112 92 132 89 14 -2 31 -11 36 -20z m267 -298 c17 -17 20
-33 20 -124 0 -112 -8 -131 -52 -124 -34 5 -48 43 -48 141 0 74 3 90 20 107
11 11 25 20 30 20 6 0 19 -9 30 -20z m250 0 c17 -17 20 -33 20 -124 0 -112 -8
-131 -52 -124 -34 5 -48 43 -48 141 0 74 3 90 20 107 11 11 25 20 30 20 6 0
19 -9 30 -20z m15 -317 c63 -21 127 -85 148 -148 23 -66 23 -234 0 -300 -21
-63 -85 -127 -148 -148 -67 -23 -243 -23 -310 0 -63 21 -127 85 -148 148 -23
66 -23 234 0 300 20 61 85 127 144 148 63 22 250 22 314 0z m-555 -153 c11
-11 20 -24 20 -30 0 -5 -9 -19 -20 -30 -17 -17 -33 -20 -124 -20 -112 0 -131
8 -124 52 5 34 43 48 141 48 74 0 90 -3 107 -20z m1020 6 c18 -22 8 -59 -20
-73 -14 -7 -62 -13 -112 -13 -75 0 -91 3 -108 20 -11 11 -20 25 -20 30 0 6 9
19 20 30 17 17 33 20 124 20 78 0 106 -4 116 -14z m-1010 -226 c11 -11 20 -24
20 -30 0 -5 -9 -19 -20 -30 -17 -17 -33 -20 -124 -20 -112 0 -131 8 -124 52 5
34 43 48 141 48 74 0 90 -3 107 -20z m1020 6 c18 -22 8 -59 -20 -73 -14 -7
-62 -13 -112 -13 -75 0 -91 3 -108 20 -11 11 -20 25 -20 30 0 6 9 19 20 30 17
17 33 20 124 20 78 0 106 -4 116 -14z m-713 -326 c7 -14 13 -62 13 -112 0 -75
-3 -91 -20 -108 -11 -11 -24 -20 -30 -20 -5 0 -19 9 -30 20 -17 17 -20 33 -20
123 0 69 4 107 12 115 20 20 61 10 75 -18z m250 0 c7 -14 13 -62 13 -112 0
-75 -3 -91 -20 -108 -11 -11 -24 -20 -30 -20 -5 0 -19 9 -30 20 -17 17 -20 33
-20 123 0 69 4 107 12 115 20 20 61 10 75 -18z m-222 -779 c-55 -34 -70 -58
-70 -116 0 -58 15 -82 70 -116 30 -19 27 -19 -243 -19 -254 0 -276 1 -312 20
-57 29 -80 79 -80 175 l0 75 333 0 c327 0 332 0 302 -19z m715 -56 c0 -96 -23
-146 -80 -175 -36 -18 -58 -20 -287 -20 -246 0 -248 0 -218 19 55 34 70 58 70
116 0 58 -15 82 -70 116 -30 19 -26 19 278 19 l307 0 0 -75z m-589 -4 c17 -18
29 -40 29 -56 0 -38 -50 -85 -90 -85 -40 0 -90 47 -90 85 0 16 12 38 29 56 40
39 82 39 122 0z"/>
<path d="M1153 3468 c-31 -15 -39 -45 -17 -69 16 -17 32 -19 185 -19 162 0
168 1 183 22 20 29 20 34 -4 58 -18 18 -33 20 -172 19 -87 0 -163 -5 -175 -11z"/>
<path d="M1188 2169 c-59 -30 -78 -79 -78 -194 0 -172 44 -215 220 -215 176 0
220 43 220 215 0 117 -19 164 -80 195 -56 29 -228 28 -282 -1z m56 -45 c31
-30 9 -84 -34 -84 -24 0 -50 26 -50 50 0 24 26 50 50 50 10 0 26 -7 34 -16z"/>
</g>
</svg>
